<?xml version="1.0" encoding="utf-8"?>
<!-- Generator: Adobe Illustrator 27.2.0, SVG Export Plug-In . SVG Version: 6.00 Build 0)  -->
<svg version="1.1" id="Layer_1" xmlns="http://www.w3.org/2000/svg" xmlns:xlink="http://www.w3.org/1999/xlink" x="0px" y="0px"
	 viewBox="0 0 1500 1500" style="enable-background:new 0 0 1500 1500;" xml:space="preserve">
<style type="text/css">
	.st0{fill:none;stroke:#000000;stroke-width:109.0909;stroke-miterlimit:54.5455;}
	.st1{fill:none;stroke:#000000;stroke-width:56.6929;stroke-miterlimit:54.5455;}
</style>
<path class="st0" d="M190.9,613.6V190.9h422.7 M886.4,190.9h422.7v422.7 M1309.1,886.4v422.7H886.4 M613.6,1309.1H190.9V886.4"/>
<line class="st1" x1="1145.7" y1="365.1" x2="872.8" y2="638"/>
<path class="st1" d="M402.3,576.1"/>
<g>
	<line class="st1" x1="870.2" y1="995.1" x2="870.2" y2="839.4"/>
	<line class="st1" x1="851.6" y1="856.1" x2="1007.2" y2="856.1"/>
</g>
<g>
	<line class="st1" x1="1007.2" y1="635.4" x2="851.6" y2="635.4"/>
	<line class="st1" x1="868.3" y1="654" x2="868.3" y2="498.3"/>
</g>
<g>
	<line class="st1" x1="652.4" y1="995.1" x2="652.4" y2="839.4"/>
	<line class="st1" x1="671" y1="856.1" x2="515.4" y2="856.1"/>
</g>
<g>
	<line class="st1" x1="496.8" y1="635.4" x2="652.4" y2="635.4"/>
	<line class="st1" x1="635.7" y1="654" x2="635.7" y2="498.3"/>
</g>
<line class="st1" x1="633.2" y1="873.5" x2="360.4" y2="1146.3"/>
<line class="st1" x1="633.2" y1="638" x2="360.4" y2="365.1"/>
<line class="st1" x1="1159.2" y1="1131.5" x2="886.4" y2="858.6"/>
</svg>
