<?xml version="1.0" encoding="UTF-8"?><svg id="Layer_1" xmlns="http://www.w3.org/2000/svg" viewBox="0 0 1227.27 1227.27"><defs><style>.cls-1{stroke-width:109.09px;}.cls-1,.cls-2{fill:none;stroke:#000;stroke-miterlimit:54.55;}.cls-2{stroke-width:56.69px;}</style></defs><path class="cls-1" d="m54.55,477.27V54.55h422.73m272.73,0h422.73v422.73m0,272.73v422.73h-422.73m-272.73,0H54.55v-422.73"/><line class="cls-2" x1="613.64" y1="613.64" x2="265.91" y2="961.36"/><line class="cls-2" x1="961.36" y1="265.91" x2="613.64" y2="613.64"/><line class="cls-2" x1="265.91" y1="265.91" x2="613.64" y2="613.64"/><line class="cls-2" x1="961.36" y1="961.36" x2="613.64" y2="613.64"/><g><line class="cls-2" x1="264.29" y1="405.56" x2="264.29" y2="249.93"/><line class="cls-2" x1="245.7" y1="266.63" x2="401.33" y2="266.63"/></g><g><line class="cls-2" x1="401.33" y1="971.39" x2="245.7" y2="971.39"/><line class="cls-2" x1="262.4" y1="989.98" x2="262.4" y2="834.35"/></g><g><line class="cls-2" x1="969.54" y1="399.24" x2="969.54" y2="243.61"/><line class="cls-2" x1="988.13" y1="260.31" x2="832.5" y2="260.31"/></g><g><line class="cls-2" x1="832.5" y1="965.07" x2="988.13" y2="965.07"/><line class="cls-2" x1="971.43" y1="983.66" x2="971.43" y2="828.03"/></g></svg>